<svg xmlns="http://www.w3.org/2000/svg" xmlns:xlink="http://www.w3.org/1999/xlink" contentStyleType="text/css" height="327px" preserveAspectRatio="none" style="width:879px;height:327px;background:#FFFFFF;" version="1.1" viewBox="0 0 879 327" width="879px" zoomAndPan="magnify"><title>System Architecture - Deployment Diagram</title><defs/><g><text fill="#000000" font-family="sans-serif" font-size="14" font-weight="bold" lengthAdjust="spacing" textLength="288.6406" x="288.1797" y="25.1074">System Architecture - Deployment Diagram</text><!--cluster docker--><g id="cluster_docker"><polygon fill="none" points="241,55.6211,251,45.6211,862,45.6211,862,161.6211,852,171.6211,241,171.6211,241,55.6211" style="stroke:#181818;stroke-width:1.0;"/><line style="stroke:#181818;stroke-width:1.0;" x1="852" x2="862" y1="55.6211" y2="45.6211"/><line style="stroke:#181818;stroke-width:1.0;" x1="241" x2="852" y1="55.6211" y2="55.6211"/><line style="stroke:#181818;stroke-width:1.0;" x1="852" x2="852" y1="55.6211" y2="171.6211"/><text fill="#000000" font-family="sans-serif" font-size="14" font-style="italic" lengthAdjust="spacing" textLength="42.0342" x="526.4829" y="73.7285">&#171;host&#187;</text><text fill="#000000" font-family="sans-serif" font-size="14" font-weight="bold" lengthAdjust="spacing" textLength="45.9102" x="524.5449" y="92.3496">docker</text></g><!--entity UI--><g id="elem_UI"><polygon fill="#F1F1F1" points="257,116.6211,267,106.6211,363.1445,106.6211,363.1445,145.2422,353.1445,155.2422,257,155.2422,257,116.6211" style="stroke:#181818;stroke-width:0.5;"/><line style="stroke:#181818;stroke-width:0.5;" x1="353.1445" x2="363.1445" y1="116.6211" y2="106.6211"/><line style="stroke:#181818;stroke-width:0.5;" x1="257" x2="353.1445" y1="116.6211" y2="116.6211"/><line style="stroke:#181818;stroke-width:0.5;" x1="353.1445" x2="353.1445" y1="116.6211" y2="155.2422"/><text fill="#000000" font-family="sans-serif" font-size="14" lengthAdjust="spacing" textLength="66.1445" x="272" y="141.7285">Angular UI</text></g><!--entity server--><g id="elem_server"><polygon fill="#F1F1F1" points="466,116.6211,476,106.6211,610.2891,106.6211,610.2891,145.2422,600.2891,155.2422,466,155.2422,466,116.6211" style="stroke:#181818;stroke-width:0.5;"/><line style="stroke:#181818;stroke-width:0.5;" x1="600.2891" x2="610.2891" y1="116.6211" y2="106.6211"/><line style="stroke:#181818;stroke-width:0.5;" x1="466" x2="600.2891" y1="116.6211" y2="116.6211"/><line style="stroke:#181818;stroke-width:0.5;" x1="600.2891" x2="600.2891" y1="116.6211" y2="155.2422"/><text fill="#000000" font-family="sans-serif" font-size="14" lengthAdjust="spacing" textLength="104.2891" x="481" y="141.7285">Laravel Backend</text></g><!--entity db--><g id="elem_db"><path d="M750,117.1211 C750,107.1211 798.1309,107.1211 798.1309,107.1211 C798.1309,107.1211 846.2617,107.1211 846.2617,117.1211 L846.2617,144.7422 C846.2617,154.7422 798.1309,154.7422 798.1309,154.7422 C798.1309,154.7422 750,154.7422 750,144.7422 L750,117.1211 " fill="#F1F1F1" style="stroke:#181818;stroke-width:0.5;"/><path d="M750,117.1211 C750,127.1211 798.1309,127.1211 798.1309,127.1211 C798.1309,127.1211 846.2617,127.1211 846.2617,117.1211 " fill="none" style="stroke:#181818;stroke-width:0.5;"/><text fill="#000000" font-family="sans-serif" font-size="14" lengthAdjust="spacing" textLength="76.2617" x="760" y="146.2285">PostgreSQL</text></g><!--entity browser--><g id="elem_browser"><polygon fill="#F1F1F1" points="16,107.6211,26,97.6211,154.041,97.6211,154.041,154.8633,144.041,164.8633,16,164.8633,16,107.6211" style="stroke:#181818;stroke-width:0.5;"/><line style="stroke:#181818;stroke-width:0.5;" x1="144.041" x2="154.041" y1="107.6211" y2="97.6211"/><line style="stroke:#181818;stroke-width:0.5;" x1="16" x2="144.041" y1="107.6211" y2="107.6211"/><line style="stroke:#181818;stroke-width:0.5;" x1="144.041" x2="144.041" y1="107.6211" y2="164.8633"/><text fill="#000000" font-family="sans-serif" font-size="14" font-style="italic" lengthAdjust="spacing" textLength="98.041" x="31" y="132.7285">&#171;Web browser&#187;</text><text fill="#000000" font-family="sans-serif" font-size="14" lengthAdjust="spacing" textLength="35.793" x="62.124" y="151.3496">Client</text></g><!--entity API--><g id="elem_API"><polygon fill="#F1F1F1" points="453,253.6211,463,243.6211,622.9512,243.6211,622.9512,300.8633,612.9512,310.8633,453,310.8633,453,253.6211" style="stroke:#181818;stroke-width:0.5;"/><line style="stroke:#181818;stroke-width:0.5;" x1="612.9512" x2="622.9512" y1="253.6211" y2="243.6211"/><line style="stroke:#181818;stroke-width:0.5;" x1="453" x2="612.9512" y1="253.6211" y2="253.6211"/><line style="stroke:#181818;stroke-width:0.5;" x1="612.9512" x2="612.9512" y1="253.6211" y2="310.8633"/><text fill="#000000" font-family="sans-serif" font-size="14" font-style="italic" lengthAdjust="spacing" textLength="65.3789" x="500.2861" y="278.7285">&#171;external&#187;</text><text fill="#000000" font-family="sans-serif" font-size="14" lengthAdjust="spacing" textLength="129.9512" x="468" y="297.3496">Simpsons Quote API</text></g><!--link browser to UI--><g id="link_browser_UI"><path d="M154.04,131.1211 C187.11,131.1211 220.1,131.1211 250.82,131.1211 " fill="none" id="browser-to-UI" style="stroke:#181818;stroke-width:1.0;"/><polygon fill="#181818" points="256.82,131.1211,247.82,127.1211,251.82,131.1211,247.82,135.1211,256.82,131.1211" style="stroke:#181818;stroke-width:1.0;"/><text fill="#000000" font-family="sans-serif" font-size="13" lengthAdjust="spacing" textLength="66.4727" x="172.5" y="124.1494">HTTP:5000</text></g><!--link UI to server--><g id="link_UI_server"><path d="M363.17,131.1211 C393.7,131.1211 426.46,131.1211 459.72,131.1211 " fill="none" id="UI-to-server" style="stroke:#181818;stroke-width:1.0;"/><polygon fill="#181818" points="465.72,131.1211,456.72,127.1211,460.72,131.1211,456.72,135.1211,465.72,131.1211" style="stroke:#181818;stroke-width:1.0;"/><text fill="#000000" font-family="sans-serif" font-size="13" lengthAdjust="spacing" textLength="66.4727" x="381.5" y="124.1494">HTTP:8080</text></g><!--link server to db--><g id="link_server_db"><path d="M610.08,131.1211 C654.56,131.1211 704.42,131.1211 743.63,131.1211 " fill="none" id="server-to-db" style="stroke:#181818;stroke-width:1.0;"/><polygon fill="#181818" points="749.63,131.1211,740.63,127.1211,744.63,131.1211,740.63,135.1211,749.63,131.1211" style="stroke:#181818;stroke-width:1.0;"/><text fill="#000000" font-family="sans-serif" font-size="13" lengthAdjust="spacing" textLength="103.3462" x="628.5" y="124.1494">PostgreSQL:5432</text></g><!--link server to API--><g id="link_server_API"><path d="M538,155.9011 C538,179.7811 538,210.7711 538,237.4111 " fill="none" id="server-to-API" style="stroke:#181818;stroke-width:1.0;"/><polygon fill="#181818" points="538,243.4111,542,234.4111,538,238.4111,534,234.4111,538,243.4111" style="stroke:#181818;stroke-width:1.0;"/><text fill="#000000" font-family="sans-serif" font-size="13" lengthAdjust="spacing" textLength="52.0127" x="539" y="209.6494">HTTP:80</text></g><!--SRC=[JOxDQiCm48JlUeh5zu1f6mZ66DpcK4CE3exfUMKjZgai1KdE3wNlthMZfjLDCz_iJ1Y29cXkFj08fUkEGw0kJ8vW1LiwQNiRoGJO3jWx78KmLX6ywM4My_o394XdBvvSKG3wtq_abEq-oJ5tj3umy2M0ts8bfUadZGxQAfc3RVNFsw73CsbuHSuRjG1yzSo7PqXXG8cUmPhlzewQ_MvXb1JViJffXl7ahV6mdsmWA6lkoNEw1d86zNqjYqB4oR0gU4G6xuT3dQtJD1LjDMltNeZ69jsa8afiAfd1tuPi_VBy91us-rpm2Fu0]--></g></svg>