<svg xmlns="http://www.w3.org/2000/svg" xmlns:xlink="http://www.w3.org/1999/xlink" contentStyleType="text/css" height="646px" preserveAspectRatio="none" style="width:1119px;height:646px;background:#FFFFFF;" version="1.1" viewBox="0 0 1119 646" width="1119px" zoomAndPan="magnify"><title>System Architecture - Sequence Diagram</title><defs/><g><text fill="#000000" font-family="sans-serif" font-size="14" font-weight="bold" lengthAdjust="spacing" textLength="274.6543" x="421.2671" y="30.1074">System Architecture - Sequence Diagram</text><line style="stroke:#181818;stroke-width:0.5;stroke-dasharray:5.0,5.0;" x1="22" x2="22" y1="123.2422" y2="563.0254"/><line style="stroke:#181818;stroke-width:0.5;stroke-dasharray:5.0,5.0;" x1="217.2305" x2="217.2305" y1="123.2422" y2="563.0254"/><line style="stroke:#181818;stroke-width:0.5;stroke-dasharray:5.0,5.0;" x1="460.127" x2="460.127" y1="123.2422" y2="563.0254"/><line style="stroke:#181818;stroke-width:0.5;stroke-dasharray:5.0,5.0;" x1="802.8311" x2="802.8311" y1="123.2422" y2="563.0254"/><line style="stroke:#181818;stroke-width:0.5;stroke-dasharray:5.0,5.0;" x1="983.0928" x2="983.0928" y1="123.2422" y2="563.0254"/><text fill="#000000" font-family="sans-serif" font-size="14" lengthAdjust="spacing" textLength="29.5586" x="5" y="119.7285">User</text><ellipse cx="22.7793" cy="53.1211" fill="#E2E2F0" rx="8" ry="8" style="stroke:#181818;stroke-width:0.5;"/><path d="M22.7793,61.1211 L22.7793,88.1211 M9.7793,69.1211 L35.7793,69.1211 M22.7793,88.1211 L9.7793,103.1211 M22.7793,88.1211 L35.7793,103.1211 " fill="none" style="stroke:#181818;stroke-width:0.5;"/><text fill="#000000" font-family="sans-serif" font-size="14" lengthAdjust="spacing" textLength="29.5586" x="5" y="577.1328">User</text><ellipse cx="22.7793" cy="589.1465" fill="#E2E2F0" rx="8" ry="8" style="stroke:#181818;stroke-width:0.5;"/><path d="M22.7793,597.1465 L22.7793,624.1465 M9.7793,605.1465 L35.7793,605.1465 M22.7793,624.1465 L9.7793,639.1465 M22.7793,624.1465 L35.7793,639.1465 " fill="none" style="stroke:#181818;stroke-width:0.5;"/><rect fill="#E2E2F0" height="32.6211" rx="2.5" ry="2.5" style="stroke:#181818;stroke-width:0.5;" width="80.1445" x="177.2305" y="89.6211"/><text fill="#000000" font-family="sans-serif" font-size="14" lengthAdjust="spacing" textLength="66.1445" x="184.2305" y="111.7285">Angular UI</text><rect fill="#E2E2F0" height="32.6211" rx="2.5" ry="2.5" style="stroke:#181818;stroke-width:0.5;" width="80.1445" x="177.2305" y="562.0254"/><text fill="#000000" font-family="sans-serif" font-size="14" lengthAdjust="spacing" textLength="66.1445" x="184.2305" y="584.1328">Angular UI</text><rect fill="#E2E2F0" height="32.6211" rx="2.5" ry="2.5" style="stroke:#181818;stroke-width:0.5;" width="118.2891" x="401.127" y="89.6211"/><text fill="#000000" font-family="sans-serif" font-size="14" lengthAdjust="spacing" textLength="104.2891" x="408.127" y="111.7285">Laravel Backend</text><rect fill="#E2E2F0" height="32.6211" rx="2.5" ry="2.5" style="stroke:#181818;stroke-width:0.5;" width="118.2891" x="401.127" y="562.0254"/><text fill="#000000" font-family="sans-serif" font-size="14" lengthAdjust="spacing" textLength="104.2891" x="408.127" y="584.1328">Laravel Backend</text><text fill="#000000" font-family="sans-serif" font-size="14" lengthAdjust="spacing" textLength="76.2617" x="761.8311" y="119.7285">PostgreSQL</text><path d="M784.9619,68.6211 C784.9619,58.6211 802.9619,58.6211 802.9619,58.6211 C802.9619,58.6211 820.9619,58.6211 820.9619,68.6211 L820.9619,94.6211 C820.9619,104.6211 802.9619,104.6211 802.9619,104.6211 C802.9619,104.6211 784.9619,104.6211 784.9619,94.6211 L784.9619,68.6211 " fill="#E2E2F0" style="stroke:#181818;stroke-width:1.5;"/><path d="M784.9619,68.6211 C784.9619,78.6211 802.9619,78.6211 802.9619,78.6211 C802.9619,78.6211 820.9619,78.6211 820.9619,68.6211 " fill="none" style="stroke:#181818;stroke-width:1.5;"/><text fill="#000000" font-family="sans-serif" font-size="14" lengthAdjust="spacing" textLength="76.2617" x="761.8311" y="577.1328">PostgreSQL</text><path d="M784.9619,590.6465 C784.9619,580.6465 802.9619,580.6465 802.9619,580.6465 C802.9619,580.6465 820.9619,580.6465 820.9619,590.6465 L820.9619,616.6465 C820.9619,626.6465 802.9619,626.6465 802.9619,626.6465 C802.9619,626.6465 784.9619,626.6465 784.9619,616.6465 L784.9619,590.6465 " fill="#E2E2F0" style="stroke:#181818;stroke-width:1.5;"/><path d="M784.9619,590.6465 C784.9619,600.6465 802.9619,600.6465 802.9619,600.6465 C802.9619,600.6465 820.9619,600.6465 820.9619,590.6465 " fill="none" style="stroke:#181818;stroke-width:1.5;"/><rect fill="#E2E2F0" height="32.6211" rx="2.5" ry="2.5" style="stroke:#181818;stroke-width:0.5;" width="259.0957" x="854.0928" y="89.6211"/><text fill="#000000" font-family="sans-serif" font-size="14" lengthAdjust="spacing" textLength="245.0957" x="861.0928" y="111.7285">Simpsons Quote API (External Service)</text><rect fill="#E2E2F0" height="32.6211" rx="2.5" ry="2.5" style="stroke:#181818;stroke-width:0.5;" width="259.0957" x="854.0928" y="562.0254"/><text fill="#000000" font-family="sans-serif" font-size="14" lengthAdjust="spacing" textLength="245.0957" x="861.0928" y="584.1328">Simpsons Quote API (External Service)</text><polygon fill="#181818" points="205.3027,152.5332,215.3027,156.5332,205.3027,160.5332,209.3027,156.5332" style="stroke:#181818;stroke-width:1.0;"/><line style="stroke:#181818;stroke-width:1.0;" x1="22.7793" x2="211.3027" y1="156.5332" y2="156.5332"/><text fill="#000000" font-family="sans-serif" font-size="13" lengthAdjust="spacing" textLength="170.5234" x="29.7793" y="151.2705">Enters username &amp; password</text><polygon fill="#181818" points="448.2715,183.8242,458.2715,187.8242,448.2715,191.8242,452.2715,187.8242" style="stroke:#181818;stroke-width:1.0;"/><line style="stroke:#181818;stroke-width:1.0;" x1="217.3027" x2="454.2715" y1="187.8242" y2="187.8242"/><text fill="#000000" font-family="sans-serif" font-size="13" lengthAdjust="spacing" textLength="137.9854" x="224.3027" y="182.5615">POST /api/login (JSON)</text><polygon fill="#181818" points="790.9619,215.1152,800.9619,219.1152,790.9619,223.1152,794.9619,219.1152" style="stroke:#181818;stroke-width:1.0;"/><line style="stroke:#181818;stroke-width:1.0;" x1="460.2715" x2="796.9619" y1="219.1152" y2="219.1152"/><text fill="#000000" font-family="sans-serif" font-size="13" lengthAdjust="spacing" textLength="163.2935" x="467.2715" y="213.8525">Fetches user with username</text><polygon fill="#181818" points="471.2715,246.4063,461.2715,250.4063,471.2715,254.4063,467.2715,250.4063" style="stroke:#181818;stroke-width:1.0;"/><line style="stroke:#181818;stroke-width:1.0;" x1="465.2715" x2="801.9619" y1="250.4063" y2="250.4063"/><text fill="#000000" font-family="sans-serif" font-size="13" lengthAdjust="spacing" textLength="103.3335" x="477.2715" y="245.1436">Returns user data</text><line style="stroke:#181818;stroke-width:1.0;" x1="460.2715" x2="502.2715" y1="281.6973" y2="281.6973"/><line style="stroke:#181818;stroke-width:1.0;" x1="502.2715" x2="502.2715" y1="281.6973" y2="294.6973"/><line style="stroke:#181818;stroke-width:1.0;" x1="461.2715" x2="502.2715" y1="294.6973" y2="294.6973"/><polygon fill="#181818" points="471.2715,290.6973,461.2715,294.6973,471.2715,298.6973,467.2715,294.6973" style="stroke:#181818;stroke-width:1.0;"/><text fill="#000000" font-family="sans-serif" font-size="13" lengthAdjust="spacing" textLength="148.8589" x="467.2715" y="276.4346">Validates user credentials</text><polygon fill="#181818" points="228.3027,321.9883,218.3027,325.9883,228.3027,329.9883,224.3027,325.9883" style="stroke:#181818;stroke-width:1.0;"/><line style="stroke:#181818;stroke-width:1.0;" x1="222.3027" x2="459.2715" y1="325.9883" y2="325.9883"/><text fill="#000000" font-family="sans-serif" font-size="13" lengthAdjust="spacing" textLength="80.9326" x="234.3027" y="320.7256">Returns token</text><polygon fill="#181818" points="205.3027,353.2793,215.3027,357.2793,205.3027,361.2793,209.3027,357.2793" style="stroke:#181818;stroke-width:1.0;"/><line style="stroke:#181818;stroke-width:1.0;" x1="22.7793" x2="211.3027" y1="357.2793" y2="357.2793"/><text fill="#000000" font-family="sans-serif" font-size="13" lengthAdjust="spacing" textLength="97.5635" x="29.7793" y="352.0166">Requests quotes</text><polygon fill="#181818" points="448.2715,384.5703,458.2715,388.5703,448.2715,392.5703,452.2715,388.5703" style="stroke:#181818;stroke-width:1.0;"/><line style="stroke:#181818;stroke-width:1.0;" x1="217.3027" x2="454.2715" y1="388.5703" y2="388.5703"/><text fill="#000000" font-family="sans-serif" font-size="13" lengthAdjust="spacing" textLength="218.9688" x="224.3027" y="383.3076">GET /api/quote {Header: Bearer Auth}</text><polygon fill="#181818" points="971.6406,415.8613,981.6406,419.8613,971.6406,423.8613,975.6406,419.8613" style="stroke:#181818;stroke-width:1.0;"/><line style="stroke:#181818;stroke-width:1.0;" x1="460.2715" x2="977.6406" y1="419.8613" y2="419.8613"/><text fill="#000000" font-family="sans-serif" font-size="13" lengthAdjust="spacing" textLength="326.625" x="467.2715" y="414.5986">Fetches new quote (GET /quotes {Header: Bearer Auth})</text><polygon fill="#181818" points="471.2715,447.1523,461.2715,451.1523,471.2715,455.1523,467.2715,451.1523" style="stroke:#181818;stroke-width:1.0;"/><line style="stroke:#181818;stroke-width:1.0;" x1="465.2715" x2="982.6406" y1="451.1523" y2="451.1523"/><text fill="#000000" font-family="sans-serif" font-size="13" lengthAdjust="spacing" textLength="156.0635" x="477.2715" y="445.8896">Returns new quote (JSON)</text><polygon fill="#181818" points="790.9619,478.4434,800.9619,482.4434,790.9619,486.4434,794.9619,482.4434" style="stroke:#181818;stroke-width:1.0;"/><line style="stroke:#181818;stroke-width:1.0;" x1="460.2715" x2="796.9619" y1="482.4434" y2="482.4434"/><text fill="#000000" font-family="sans-serif" font-size="13" lengthAdjust="spacing" textLength="318.6904" x="467.2715" y="477.1807">Stores new quote, deletes oldest if more than 5 present</text><polygon fill="#181818" points="471.2715,509.7344,461.2715,513.7344,471.2715,517.7344,467.2715,513.7344" style="stroke:#181818;stroke-width:1.0;"/><line style="stroke:#181818;stroke-width:1.0;" x1="465.2715" x2="801.9619" y1="513.7344" y2="513.7344"/><text fill="#000000" font-family="sans-serif" font-size="13" lengthAdjust="spacing" textLength="132.2344" x="477.2715" y="508.4717">Retrieves last 5 quotes</text><polygon fill="#181818" points="228.3027,541.0254,218.3027,545.0254,228.3027,549.0254,224.3027,545.0254" style="stroke:#181818;stroke-width:1.0;"/><line style="stroke:#181818;stroke-width:1.0;" x1="222.3027" x2="459.2715" y1="545.0254" y2="545.0254"/><text fill="#000000" font-family="sans-serif" font-size="13" lengthAdjust="spacing" textLength="135.1035" x="234.3027" y="539.7627">Returns quotes (JSON)</text><!--SRC=[TP91Jy9048Nl-oic70ma4avSE9X0GCKG0QlUn-tORjnko-uKDCR_xhG5B0HFFRmttynxMpPi2QAlm9J1sElKC6akFK4V8jgKv3J1r63YCLCADUSUNW9vLQ1deqs1Zg4pTabfKPHv1p38vrHUeCSjMPYW_Y0Nrvw8_5OmCJA-OI3ehFB0YQTelQZrwUIK4Pci2BaBi2vp9XYlvj2TVJ9vXxQ66KszUb8afQeReNyZfy08Pavy0SfGkJE2AoWmX5tkOoMwk9fZnBbQHiymmC8CR9uO1zs7QFdOKtjTdDE9k6w9TKeD47Q6qoDQYTxcFP5qwVREAciBTJIzeZMY7O3QKqoE3ThGSjT13ZZEfSUpa4_LQmKEiAaA2kV9xcRxOBKCt_U4CVaHJ0Yz6CObfp-jTLM_Vq4TxHeiT6jEi-8ofAUgsKibj2WNQutavselkuQOB5MBSXjBD33la8a5E4K7GoZ4BKLTwDmRsigOHHaQ7WhvfyjzbkQaNm00]--></g></svg>